<?xml version="1.0" encoding="utf-8"?><!-- Uploaded to: SVG Repo, www.svgrepo.com, Generator: SVG Repo Mixer Tools -->
<svg width="800px" height="800px" viewBox="0 0 24 24" fill="none" xmlns="http://www.w3.org/2000/svg">
<path fill-rule="evenodd" clip-rule="evenodd" d="M23 4C23 2.34315 21.6569 1 20 1H4C2.34315 1 1 2.34315 1 4V20C1 21.6569 2.34315 23 4 23H20C21.6569 23 23 21.6569 23 20V4ZM21 4C21 3.44772 20.5523 3 20 3H4C3.44772 3 3 3.44772 3 4V20C3 20.5523 3.44772 21 4 21H20C20.5523 21 21 20.5523 21 20V4Z" fill="#0F0F0F"/>
<path fill-rule="evenodd" clip-rule="evenodd" d="M16 9C15.4477 9 15 9.44772 15 10V14C15 14.5522 15.4477 15 16.0001 15L16.5 15C17.0767 15 17 14.3915 17 14C16.4477 14 16 13.5523 16 13C16 12.4477 16.4477 12 17 12H18C18.5523 12 19 12.4477 19 13V15C19 15.46 18.6418 15.8974 18.3321 16.2071C17.9731 16.5661 17.3587 17 16.5 17L16 17C14.3432 17 13 15.6569 13 14V10C13 8.34314 14.3432 7 16 7H16.5C17.3588 7 17.9731 7.4339 18.3321 7.79289C18.5525 8.01327 18.7487 8.26821 18.8912 8.54641C19.1344 9.0269 18.9296 9.65324 18.4472 9.89443C17.9569 10.1396 17.3615 9.94413 17.1111 9.45814C16.989 9.24168 16.766 9 16.5 9H16Z" fill="#0F0F0F"/>
<path fill-rule="evenodd" clip-rule="evenodd" d="M5 9C5 7.89543 5.89543 7 7 7L8.00529 7.00001C8.17701 7.00129 8.34857 7.02511 8.51645 7.06008C8.78672 7.11639 9.15496 7.2301 9.53 7.4645C10.3429 7.97259 11 8.93017 11 10.5C11 12.0698 10.3429 13.0274 9.53 13.5355C9.15496 13.7699 8.78672 13.8836 8.51645 13.9399C8.34757 13.9751 8.17533 13.9993 8.00254 14L7 14V16C7 16.5523 6.55229 17 6 17C5.44772 17 5 16.5523 5 16V9ZM7 12C7.32814 12 7.67032 12.0283 7.99701 11.9991C8.75983 11.931 9 11.1712 9 10.5C9 9.82878 8.75983 9.06903 7.99701 9.00092C7.67032 8.97175 7.32814 9 7 9V12Z" fill="#0F0F0F"/>
</svg>